<svg width="56" height="50" viewBox="0 0 56 50" fill="none" xmlns="http://www.w3.org/2000/svg">
<g filter="url(#filter0_d_39_1659)">
<path d="M21.0861 13.2979H24.5406C24.6873 13.2993 24.8319 13.2634 24.9609 13.1937C25.09 13.1239 25.1991 13.0225 25.2782 12.8989L27.6565 8.98769C27.982 8.45482 28.8246 8.46794 29.1344 9.00082L31.4234 12.8858C31.5009 13.0118 31.6094 13.1158 31.7385 13.1879C31.8677 13.2601 32.0131 13.2979 32.161 13.2979H35.647C36.2822 13.2979 36.697 12.6627 36.3846 12.1324L29.2971 0.477444C29.2003 0.330694 29.0685 0.210264 28.9137 0.12694C28.7588 0.0436156 28.5857 0 28.4099 0C28.234 0 28.0609 0.0436156 27.9061 0.12694C27.7513 0.210264 27.6195 0.330694 27.5226 0.477444L20.3643 12.1482C20.0388 12.6522 20.4378 13.3032 21.1019 13.3032L21.0861 13.2979ZM4.81113 41.3592H20.5821C21.3066 41.3592 21.661 40.4877 21.1728 39.9706L18.1619 36.9256H12.9644C12.1795 36.9256 11.707 35.8808 12.1638 35.2141L13.45 33.3241C13.6005 33.0993 13.6681 32.8292 13.6413 32.5601C13.6145 32.2909 13.4949 32.0395 13.303 31.8488L11.2345 29.8249C11.1458 29.7418 11.0397 29.6797 10.9238 29.6429C10.808 29.6062 10.6854 29.5959 10.5651 29.6128C10.4447 29.6297 10.3297 29.6733 10.2284 29.7404C10.1271 29.8076 10.0422 29.8965 9.97975 30.0008L4.1155 40.1176C4.04175 40.2415 4.00194 40.3827 4.00007 40.527C3.9982 40.6712 4.03433 40.8134 4.10483 40.9392C4.17533 41.0651 4.27772 41.1701 4.4017 41.2439C4.52569 41.3176 4.66689 41.3574 4.81113 41.3592ZM50.4441 41.3592H34.6705C33.9486 41.3592 33.5942 40.4877 34.0825 39.9706L37.0934 36.9256H42.2909C43.0757 36.9256 43.5483 35.8808 43.0915 35.2141L41.8053 33.3241C41.6553 33.0991 41.5879 32.8292 41.6147 32.5601C41.6415 32.2911 41.7608 32.0397 41.9523 31.8488L44.0208 29.8249C44.107 29.7369 44.2127 29.6704 44.3294 29.6307C44.4461 29.5909 44.5705 29.5792 44.6925 29.5963C44.8146 29.6134 44.9309 29.6589 45.0322 29.7292C45.1334 29.7994 45.2168 29.8925 45.2755 30.0008L51.1398 40.1176C51.2118 40.2418 51.2503 40.3827 51.2514 40.5263C51.2525 40.67 51.2161 40.8114 51.1459 40.9367C51.0757 41.062 50.9741 41.1669 50.851 41.241C50.728 41.315 50.5877 41.3558 50.4441 41.3592ZM26.1497 15.6342V22.4251C26.1583 22.7362 26.0437 23.0381 25.8308 23.2652C25.618 23.4923 25.3241 23.6262 25.0131 23.6378H22.7399C22.1046 23.6378 21.7214 23.1049 21.7214 22.4408V20.4458C21.7214 19.9733 21.2331 19.2068 20.7895 19.2068H12.6678C11.9433 19.2068 11.5889 20.5351 12.106 21.0679L20.2566 29.4837C20.7606 30.0008 21.7214 29.9719 21.7214 29.2343C21.7214 28.5833 22.0889 28.0531 22.7084 28.0531H25.0131C25.3237 28.0647 25.6171 28.1983 25.8299 28.4248C26.0426 28.6513 26.1576 28.9525 26.1497 29.2632V40.3249C26.1497 41.2411 25.1181 41.6978 24.4803 41.0626L5.77188 21.3908C5.58398 21.1912 5.47935 20.9274 5.47935 20.6532C5.47935 20.379 5.58398 20.1152 5.77188 19.9156L10.6728 14.7758H25.3386C25.5596 14.7827 25.7689 14.8764 25.9212 15.0366C26.0736 15.1968 26.1566 15.4106 26.1524 15.6316M29.1055 40.3223V16.1461C29.1055 15.3927 29.6987 14.7732 30.4206 14.7732H44.0522C44.4066 14.7732 44.7479 14.9202 44.9841 15.1853L49.5017 20.0599C49.6028 20.1738 49.6798 20.3069 49.728 20.4512C49.7763 20.5956 49.7949 20.7482 49.7826 20.8999C49.738 21.2569 49.5018 21.5509 49.2812 21.8318L49.0739 22.0969L48.3809 23.0734L48.3494 23.0997C48.1735 23.3386 47.9819 23.6194 47.6721 23.6352H43.1073C42.7818 23.6352 42.3985 23.3674 42.3985 23.0131V22.7768C42.3985 22.3332 42.6951 21.9211 43.018 21.6402L43.0626 21.5956C43.2411 21.4486 43.4616 20.5902 43.4616 20.3408C43.4616 19.8814 42.9734 19.2042 42.5324 19.2042H34.4999C34.0536 19.2042 33.5365 19.9707 33.5365 20.4432V28.7434C33.5365 29.6753 34.7493 30.1321 35.3687 29.4679L36.8913 28.1371C36.949 28.0793 37.0382 28.0636 37.1275 28.0636H40.9521C41.8236 28.0636 42.2515 29.1424 41.6451 29.8066L30.7908 41.0468C30.1713 41.7109 29.1055 41.2384 29.1055 40.3223Z" fill="black"/>
</g>
<defs>
<filter id="filter0_d_39_1659" x="0" y="0" width="55.2515" height="49.3593" filterUnits="userSpaceOnUse" color-interpolation-filters="sRGB">
<feFlood flood-opacity="0" result="BackgroundImageFix"/>
<feColorMatrix in="SourceAlpha" type="matrix" values="0 0 0 0 0 0 0 0 0 0 0 0 0 0 0 0 0 0 127 0" result="hardAlpha"/>
<feOffset dy="4"/>
<feGaussianBlur stdDeviation="2"/>
<feComposite in2="hardAlpha" operator="out"/>
<feColorMatrix type="matrix" values="0 0 0 0 0 0 0 0 0 0 0 0 0 0 0 0 0 0 0.5 0"/>
<feBlend mode="normal" in2="BackgroundImageFix" result="effect1_dropShadow_39_1659"/>
<feBlend mode="normal" in="SourceGraphic" in2="effect1_dropShadow_39_1659" result="shape"/>
</filter>
</defs>
</svg>
