<svg width="42" height="52" viewBox="0 0 42 52" fill="none" xmlns="http://www.w3.org/2000/svg">
<path d="M4.26229 30.5C2.44896 27.5305 1.49292 24.117 1.50004 20.6376C1.50004 10.0671 10.1565 1.5 20.8334 1.5C31.5102 1.5 40.1667 10.0671 40.1667 20.6376C40.1738 24.117 39.2178 27.5305 37.4045 30.5" stroke="black" stroke-width="3" stroke-linecap="round"/>
<path d="M28.0834 42.5833L27.7692 44.1469C27.4309 45.8555 27.2593 46.7086 26.8751 47.3852C26.283 48.4282 25.3243 49.2137 24.1853 49.5892C23.4482 49.8333 22.5734 49.8333 20.8334 49.8333C19.0934 49.8333 18.2186 49.8333 17.4815 49.5917C16.3421 49.2155 15.3834 48.4291 14.7917 47.3852C14.4075 46.7086 14.2359 45.8555 13.8976 44.1469L13.5834 42.5833M9.67564 37.9868C9.45331 37.3198 9.34214 36.9839 9.35422 36.7132C9.36789 36.4334 9.46236 36.1635 9.62619 35.9362C9.79003 35.7089 10.0162 35.5339 10.2774 35.4324C10.5287 35.3333 10.8816 35.3333 11.5824 35.3333H30.0844C30.7876 35.3333 31.1381 35.3333 31.3894 35.43C31.6509 35.5316 31.8774 35.707 32.0412 35.9348C32.2051 36.1625 32.2993 36.433 32.3126 36.7132C32.3246 36.9839 32.2135 37.3174 31.9911 37.9868C31.5803 39.2217 31.3749 39.8404 31.0583 40.3407C30.3961 41.3861 29.3582 42.1378 28.1583 42.4407C27.5831 42.5833 26.9355 42.5833 25.6377 42.5833H16.0291C14.7313 42.5833 14.0812 42.5833 13.5085 42.4383C12.309 42.136 11.2711 41.3852 10.6085 40.3407C10.2919 39.8404 10.0865 39.2217 9.67564 37.9868Z" stroke="black" stroke-width="3"/>
<path d="M11.7709 20.2292L17.2084 25.6667V35.3333M29.8959 20.2292L24.4584 25.6667V35.3333M11.7709 22.0417C12.2516 22.0417 12.7126 21.8507 13.0525 21.5108C13.3924 21.1709 13.5834 20.7099 13.5834 20.2292C13.5834 19.7485 13.3924 19.2875 13.0525 18.9475C12.7126 18.6076 12.2516 18.4167 11.7709 18.4167C11.2902 18.4167 10.8292 18.6076 10.4892 18.9475C10.1493 19.2875 9.95837 19.7485 9.95837 20.2292C9.95837 20.7099 10.1493 21.1709 10.4892 21.5108C10.8292 21.8507 11.2902 22.0417 11.7709 22.0417ZM29.8959 22.0417C29.4152 22.0417 28.9542 21.8507 28.6142 21.5108C28.2743 21.1709 28.0834 20.7099 28.0834 20.2292C28.0834 19.7485 28.2743 19.2875 28.6142 18.9475C28.9542 18.6076 29.4152 18.4167 29.8959 18.4167C30.3766 18.4167 30.8376 18.6076 31.1775 18.9475C31.5174 19.2875 31.7084 19.7485 31.7084 20.2292C31.7084 20.7099 31.5174 21.1709 31.1775 21.5108C30.8376 21.8507 30.3766 22.0417 29.8959 22.0417Z" stroke="black" stroke-width="3" stroke-linecap="round" stroke-linejoin="round"/>
</svg>
