<svg width="64" height="64" viewBox="0 0 64 64" fill="none" xmlns="http://www.w3.org/2000/svg">
<path d="M5.33325 5.33333H42.6666C47.6959 5.33333 50.2079 5.33333 51.7706 6.896C53.3333 8.45867 53.3333 10.9707 53.3333 16V32C53.3333 37.0293 53.3333 39.5413 51.7706 41.104C50.2079 42.6667 47.6959 42.6667 42.6666 42.6667H23.9999M26.6666 17.3333H42.6666M5.33325 45.3333V34.6667C5.33325 32.152 5.33325 30.896 6.11459 30.1147C6.89592 29.3333 8.15192 29.3333 10.6666 29.3333H15.9999M5.33325 45.3333H15.9999M5.33325 45.3333V58.6667M15.9999 29.3333V45.3333M15.9999 29.3333H31.9999M15.9999 45.3333V58.6667" stroke="black" stroke-width="1.5" stroke-linecap="round" stroke-linejoin="round"/>
<path d="M15.9999 17.3333C15.9999 18.7478 15.438 20.1044 14.4378 21.1046C13.4376 22.1048 12.0811 22.6667 10.6666 22.6667C9.2521 22.6667 7.89554 22.1048 6.89535 21.1046C5.89515 20.1044 5.33325 18.7478 5.33325 17.3333C5.33325 15.9188 5.89515 14.5623 6.89535 13.5621C7.89554 12.5619 9.2521 12 10.6666 12C12.0811 12 13.4376 12.5619 14.4378 13.5621C15.438 14.5623 15.9999 15.9188 15.9999 17.3333Z" stroke="black" stroke-width="1.5"/>
</svg>
