<svg width="49" height="48" viewBox="0 0 49 48" fill="none" xmlns="http://www.w3.org/2000/svg">
<g filter="url(#filter0_d_39_1584)">
<path d="M7.91639 23.9163V4.75C7.91639 3.75544 8.31147 2.80161 9.01473 2.09835C9.718 1.39509 10.6718 1 11.6664 1H37.1664C38.1609 1 39.1148 1.39509 39.818 2.09835C40.5213 2.80161 40.9164 3.75544 40.9164 4.75V23.9163L43.6914 33.73C43.849 34.2876 43.8752 34.8741 43.7681 35.4436C43.6609 36.013 43.4232 36.5499 43.0737 37.012C42.7242 37.4742 42.2723 37.849 41.7536 38.1072C41.2348 38.3654 40.6633 38.4998 40.0839 38.5H8.74889C8.16945 38.4998 7.59793 38.3654 7.07918 38.1072C6.56044 37.849 6.10857 37.4742 5.75905 37.012C5.40953 36.5499 5.17186 36.013 5.0647 35.4436C4.95753 34.8741 4.98378 34.2876 5.14139 33.73L7.91639 23.9163Z" fill="white"/>
<path d="M7.91639 23.9163V4.75C7.91639 3.75544 8.31147 2.80161 9.01473 2.09835C9.718 1.39509 10.6718 1 11.6664 1H37.1664C38.1609 1 39.1148 1.39509 39.818 2.09835C40.5213 2.80161 40.9164 3.75544 40.9164 4.75V23.9163M7.91639 23.9163H40.9164M7.91639 23.9163L5.14139 33.73C4.98378 34.2876 4.95753 34.8741 5.0647 35.4436C5.17186 36.013 5.40953 36.5499 5.75905 37.012C6.10857 37.4742 6.56044 37.849 7.07918 38.1072C7.59793 38.3654 8.16945 38.4998 8.74889 38.5H40.0839C40.6633 38.4998 41.2348 38.3654 41.7536 38.1072C42.2723 37.849 42.7242 37.4742 43.0737 37.012C43.4232 36.5499 43.6609 36.013 43.7681 35.4436C43.8752 34.8741 43.849 34.2876 43.6914 33.73L40.9164 23.9163" stroke="black" stroke-width="2"/>
<path d="M22.5414 32.875H26.2914" stroke="black" stroke-width="2" stroke-linecap="round" stroke-linejoin="round"/>
</g>
<defs>
<filter id="filter0_d_39_1584" x="0" y="0" width="48.8328" height="47.5" filterUnits="userSpaceOnUse" color-interpolation-filters="sRGB">
<feFlood flood-opacity="0" result="BackgroundImageFix"/>
<feColorMatrix in="SourceAlpha" type="matrix" values="0 0 0 0 0 0 0 0 0 0 0 0 0 0 0 0 0 0 127 0" result="hardAlpha"/>
<feOffset dy="4"/>
<feGaussianBlur stdDeviation="2"/>
<feComposite in2="hardAlpha" operator="out"/>
<feColorMatrix type="matrix" values="0 0 0 0 0 0 0 0 0 0 0 0 0 0 0 0 0 0 0.5 0"/>
<feBlend mode="normal" in2="BackgroundImageFix" result="effect1_dropShadow_39_1584"/>
<feBlend mode="normal" in="SourceGraphic" in2="effect1_dropShadow_39_1584" result="shape"/>
</filter>
</defs>
</svg>
