<svg width="40" height="40" viewBox="0 0 40 40" fill="none" xmlns="http://www.w3.org/2000/svg">
<path d="M19.1666 5C23.3658 5 27.3931 6.66815 30.3624 9.63748C33.3318 12.6068 34.9999 16.6341 34.9999 20.8333C34.9999 25.0326 33.3318 29.0599 30.3624 32.0292C27.3931 34.9985 23.3658 36.6667 19.1666 36.6667C14.9673 36.6667 10.9401 34.9985 7.97073 32.0292C5.0014 29.0599 3.33325 25.0326 3.33325 20.8333C3.33325 16.6341 5.0014 12.6068 7.97073 9.63748C10.9401 6.66815 14.9673 5 19.1666 5ZM19.1666 6.66667C15.4094 6.66667 11.806 8.15922 9.14924 10.816C6.49247 13.4728 4.99992 17.0761 4.99992 20.8333C4.99992 24.5906 6.49247 28.1939 9.14924 30.8507C11.806 33.5074 15.4094 35 19.1666 35C21.027 35 22.8692 34.6336 24.5879 33.9216C26.3067 33.2097 27.8684 32.1662 29.1839 30.8507C30.4994 29.5352 31.5429 27.9735 32.2549 26.2547C32.9668 24.5359 33.3333 22.6937 33.3333 20.8333C33.3333 17.0761 31.8407 13.4728 29.1839 10.816C26.5272 8.15922 22.9238 6.66667 19.1666 6.66667ZM18.3333 11.6667H19.9999V20.7L27.8333 25.2167L26.9999 26.6667L18.3333 21.6667V11.6667Z" fill="black"/>
</svg>
