<svg width="59" height="59" viewBox="0 0 59 59" fill="none" xmlns="http://www.w3.org/2000/svg">
<path d="M28.5781 31.3438C28.5781 31.5882 28.481 31.8227 28.3081 31.9956C28.1352 32.1685 27.9007 32.2656 27.6563 32.2656H16.5938C16.3493 32.2656 16.1148 32.1685 15.9419 31.9956C15.769 31.8227 15.6719 31.5882 15.6719 31.3438C15.6719 31.0993 15.769 30.8648 15.9419 30.6919C16.1148 30.519 16.3493 30.4219 16.5938 30.4219H27.6563C27.9007 30.4219 28.1352 30.519 28.3081 30.6919C28.481 30.8648 28.5781 31.0993 28.5781 31.3438ZM27.6563 23.0469H16.5938C16.3493 23.0469 16.1148 23.144 15.9419 23.3169C15.769 23.4898 15.6719 23.7243 15.6719 23.9688C15.6719 24.2132 15.769 24.4477 15.9419 24.6206C16.1148 24.7935 16.3493 24.8906 16.5938 24.8906H27.6563C27.9007 24.8906 28.1352 24.7935 28.3081 24.6206C28.481 24.4477 28.5781 24.2132 28.5781 23.9688C28.5781 23.7243 28.481 23.4898 28.3081 23.3169C28.1352 23.144 27.9007 23.0469 27.6563 23.0469ZM52.5469 36.8151V51.625C52.5471 51.7869 52.5047 51.9461 52.4239 52.0864C52.3431 52.2267 52.2267 52.3433 52.0865 52.4244C51.9464 52.5055 51.7873 52.5482 51.6253 52.5482C51.4634 52.5483 51.3043 52.5057 51.1641 52.4247L45.1719 49L39.1797 52.4247C39.0394 52.5057 38.8803 52.5483 38.7184 52.5482C38.5565 52.5482 38.3974 52.5055 38.2572 52.4244C38.117 52.3433 38.0007 52.2267 37.9199 52.0864C37.8391 51.9461 37.7966 51.7869 37.7969 51.625V45.1719H9.21875C8.48526 45.1719 7.78181 44.8805 7.26316 44.3618C6.7445 43.8432 6.45312 43.1397 6.45312 42.4062V12.9062C6.45312 12.1728 6.7445 11.4693 7.26316 10.9507C7.78181 10.432 8.48526 10.1406 9.21875 10.1406H49.7813C50.5147 10.1406 51.2182 10.432 51.7368 10.9507C52.2555 11.4693 52.5469 12.1728 52.5469 12.9062V20.3412C53.7068 21.3771 54.6348 22.6464 55.2702 24.0658C55.9056 25.4853 56.234 27.0229 56.234 28.5781C56.234 30.1333 55.9056 31.6709 55.2702 33.0904C54.6348 34.5099 53.7068 35.7791 52.5469 36.8151ZM45.1719 19.3594C43.3486 19.3594 41.5662 19.9 40.0502 20.913C38.5342 21.926 37.3526 23.3658 36.6549 25.0503C35.9571 26.7348 35.7746 28.5884 36.1303 30.3766C36.486 32.1649 37.364 33.8075 38.6532 35.0968C39.9425 36.386 41.5851 37.264 43.3734 37.6197C45.1616 37.9754 47.0152 37.7929 48.6997 37.0951C50.3842 36.3974 51.824 35.2158 52.837 33.6998C53.85 32.1838 54.3906 30.4014 54.3906 28.5781C54.3906 26.1332 53.4194 23.7883 51.6905 22.0595C49.9617 20.3306 47.6168 19.3594 45.1719 19.3594ZM37.7969 43.3281V36.8151C35.7749 34.9856 34.4997 32.4739 34.2163 29.7618C33.9328 27.0498 34.661 24.3286 36.261 22.1206C37.861 19.9126 40.2201 18.3733 42.8856 17.7982C45.551 17.223 48.335 17.6526 50.7031 19.0045V12.9062C50.7031 12.6618 50.606 12.4273 50.4331 12.2544C50.2602 12.0815 50.0257 11.9844 49.7813 11.9844H9.21875C8.97425 11.9844 8.73977 12.0815 8.56689 12.2544C8.394 12.4273 8.29688 12.6618 8.29688 12.9062V42.4062C8.29688 42.6507 8.394 42.8852 8.56689 43.0581C8.73977 43.231 8.97425 43.3281 9.21875 43.3281H37.7969ZM50.7031 38.1518C49.0229 39.127 47.1146 39.6407 45.1719 39.6407C43.2291 39.6407 41.3209 39.127 39.6406 38.1518V50.0371L44.7109 47.1378C44.8511 47.0569 45.0101 47.0143 45.1719 47.0143C45.3337 47.0143 45.4927 47.0569 45.6328 47.1378L50.7031 50.0371V38.1518Z" fill="black"/>
</svg>
