<svg width="50" height="50" viewBox="0 0 50 50" fill="none" xmlns="http://www.w3.org/2000/svg">
<g filter="url(#filter0_d_39_1588)">
<path d="M14.8438 10.8488L21.875 17.8801M14.8438 10.8488L18.125 7.56758V7.09883L15.425 5.97383C13.4844 5.16511 11.6667 4.08838 10.025 2.77508L7.8125 1.00508H7.34375L5 3.34883V3.81758L6.77 6.03008C8.0833 7.6718 9.16002 9.48948 9.96875 11.4301L11.0938 14.1301H11.5625L14.8438 10.8488ZM27.9388 30.0676C30.8803 33.4055 33.7046 36.8451 36.4062 40.3801H36.875L44.375 32.8801V32.4113C44.375 32.4113 39.7437 28.9388 34.0625 23.9438M35 19.7551C36.5569 19.7555 38.0894 19.3682 39.4591 18.6282C40.8288 17.8881 41.9927 16.8186 42.8456 15.5161C43.6986 14.2136 44.2137 12.7193 44.3445 11.1679C44.4753 9.61652 44.2178 8.05699 43.595 6.63008H42.5L36.875 12.2551H33.125V8.50508L38.75 2.88008V1.78508C37.0694 1.05034 35.2103 0.824707 33.4027 1.13612C31.5952 1.44754 29.9187 2.28232 28.5809 3.53709C27.2431 4.79186 26.3028 6.41148 25.8764 8.19538C25.45 9.97928 25.5562 11.8491 26.1819 13.5732L22.8125 16.9426C14.375 25.3801 5 32.4113 5 32.4113V32.8801L12.5 40.3801H12.9688C12.9688 40.3801 20 31.0051 28.4375 22.5676L31.8069 19.1982C32.8308 19.5678 33.9114 19.7563 35 19.7551Z" stroke="black" stroke-width="2" shape-rendering="crispEdges"/>
</g>
<defs>
<filter id="filter0_d_39_1588" x="0" y="0" width="49.3777" height="49.3801" filterUnits="userSpaceOnUse" color-interpolation-filters="sRGB">
<feFlood flood-opacity="0" result="BackgroundImageFix"/>
<feColorMatrix in="SourceAlpha" type="matrix" values="0 0 0 0 0 0 0 0 0 0 0 0 0 0 0 0 0 0 127 0" result="hardAlpha"/>
<feOffset dy="4"/>
<feGaussianBlur stdDeviation="2"/>
<feComposite in2="hardAlpha" operator="out"/>
<feColorMatrix type="matrix" values="0 0 0 0 0 0 0 0 0 0 0 0 0 0 0 0 0 0 0.5 0"/>
<feBlend mode="normal" in2="BackgroundImageFix" result="effect1_dropShadow_39_1588"/>
<feBlend mode="normal" in="SourceGraphic" in2="effect1_dropShadow_39_1588" result="shape"/>
</filter>
</defs>
</svg>
