<svg width="54" height="54" viewBox="0 0 54 54" fill="none" xmlns="http://www.w3.org/2000/svg">
<g filter="url(#filter0_d_39_1655)">
<path d="M25.3125 38.7675C21.444 38.7675 18.1335 37.4708 15.381 34.8773C12.627 32.2823 11.25 29.0798 11.25 25.2698V11.25C11.25 10.647 11.4743 10.1212 11.9228 9.67275C12.3713 9.22425 12.897 9 13.5 9H41.0625C42.7725 9 44.2313 9.5745 45.4388 10.7235C46.6463 11.8695 47.25 13.2855 47.25 14.9715C47.25 16.74 46.6545 18.249 45.4635 19.4985C44.2725 20.748 42.8055 21.3735 41.0625 21.375H38.943V25.2675C38.943 29.0295 37.6163 32.22 34.9628 34.839C32.3108 37.4595 29.094 38.7698 25.3125 38.7698M13.5 19.125H36.693V11.25H13.5V19.125ZM25.3125 36.5175C28.4835 36.5175 31.1723 35.4285 33.3788 33.2505C35.5883 31.071 36.693 28.4107 36.693 25.2698V21.375H13.5V25.2675C13.5 28.4385 14.6618 31.107 16.9853 33.273C19.3088 35.439 22.0845 36.5213 25.3125 36.5198M38.943 19.125H41.0625C42.1725 19.125 43.1063 18.7215 43.8638 17.9145C44.6213 17.1075 45 16.1265 45 14.9715C45 13.9185 44.607 13.035 43.821 12.321C43.035 11.607 42.1155 11.25 41.0625 11.25H38.943V19.125ZM12.375 45C12.0555 45 11.7885 44.892 11.574 44.676C11.3595 44.46 11.2515 44.1923 11.25 43.8727C11.2485 43.5532 11.3565 43.2863 11.574 43.0718C11.7915 42.8573 12.0585 42.75 12.375 42.75H41.625C41.9445 42.75 42.2115 42.858 42.426 43.074C42.6405 43.29 42.7485 43.5577 42.75 43.8773C42.7515 44.1968 42.6435 44.4637 42.426 44.6782C42.2085 44.8927 41.9415 45 41.625 45H12.375Z" fill="black"/>
</g>
<defs>
<filter id="filter0_d_39_1655" x="7.25" y="9" width="44" height="44" filterUnits="userSpaceOnUse" color-interpolation-filters="sRGB">
<feFlood flood-opacity="0" result="BackgroundImageFix"/>
<feColorMatrix in="SourceAlpha" type="matrix" values="0 0 0 0 0 0 0 0 0 0 0 0 0 0 0 0 0 0 127 0" result="hardAlpha"/>
<feOffset dy="4"/>
<feGaussianBlur stdDeviation="2"/>
<feComposite in2="hardAlpha" operator="out"/>
<feColorMatrix type="matrix" values="0 0 0 0 0 0 0 0 0 0 0 0 0 0 0 0 0 0 0.5 0"/>
<feBlend mode="normal" in2="BackgroundImageFix" result="effect1_dropShadow_39_1655"/>
<feBlend mode="normal" in="SourceGraphic" in2="effect1_dropShadow_39_1655" result="shape"/>
</filter>
</defs>
</svg>
