<svg width="52" height="52" viewBox="0 0 52 52" fill="none" xmlns="http://www.w3.org/2000/svg">
<g filter="url(#filter0_d_28_1127)">
<rect width="44" height="44" transform="translate(4)" fill="#8E8E93"/>
<path d="M26 11C28.5083 9.55183 31.3536 8.78943 34.25 8.78943C37.1464 8.78943 39.9917 9.55183 42.5 11V34.8333C39.9917 33.3852 37.1464 32.6228 34.25 32.6228C31.3536 32.6228 28.5083 33.3852 26 34.8333C23.4917 33.3852 20.6464 32.6228 17.75 32.6228C14.8536 32.6228 12.0083 33.3852 9.5 34.8333V11C12.0083 9.55183 14.8536 8.78943 17.75 8.78943C20.6464 8.78943 23.4917 9.55183 26 11ZM26 34.8333V11" stroke="white" stroke-width="2" stroke-linecap="round" stroke-linejoin="round"/>
</g>
<defs>
<filter id="filter0_d_28_1127" x="0" y="0" width="52" height="52" filterUnits="userSpaceOnUse" color-interpolation-filters="sRGB">
<feFlood flood-opacity="0" result="BackgroundImageFix"/>
<feColorMatrix in="SourceAlpha" type="matrix" values="0 0 0 0 0 0 0 0 0 0 0 0 0 0 0 0 0 0 127 0" result="hardAlpha"/>
<feOffset dy="4"/>
<feGaussianBlur stdDeviation="2"/>
<feComposite in2="hardAlpha" operator="out"/>
<feColorMatrix type="matrix" values="0 0 0 0 0 0 0 0 0 0 0 0 0 0 0 0 0 0 0.6 0"/>
<feBlend mode="normal" in2="BackgroundImageFix" result="effect1_dropShadow_28_1127"/>
<feBlend mode="normal" in="SourceGraphic" in2="effect1_dropShadow_28_1127" result="shape"/>
</filter>
</defs>
</svg>
