<svg width="51" height="51" viewBox="0 0 51 51" fill="none" xmlns="http://www.w3.org/2000/svg">
<g filter="url(#filter0_d_28_1125)">
<rect width="43" height="43" transform="translate(4)" fill="#8E8E93"/>
<mask id="path-1-inside-1_28_1125" fill="white">
<path d="M24.6041 5.375C29.1183 5.375 33.4476 7.16826 36.6396 10.3603C39.8317 13.5523 41.6249 17.8816 41.6249 22.3958C41.6249 26.91 39.8317 31.2394 36.6396 34.4314C33.4476 37.6234 29.1183 39.4167 24.6041 39.4167C20.0899 39.4167 15.7606 37.6234 12.5685 34.4314C9.37651 31.2394 7.58325 26.91 7.58325 22.3958C7.58325 17.8816 9.37651 13.5523 12.5685 10.3603C15.7606 7.16826 20.0899 5.375 24.6041 5.375ZM24.6041 7.16667C20.5651 7.16667 16.6915 8.77116 13.8354 11.6272C10.9794 14.4832 9.37492 18.3568 9.37492 22.3958C9.37492 26.4349 10.9794 30.3085 13.8354 33.1645C16.6915 36.0205 20.5651 37.625 24.6041 37.625C26.604 37.625 28.5843 37.2311 30.432 36.4657C32.2797 35.7004 33.9586 34.5786 35.3727 33.1645C36.7869 31.7503 37.9087 30.0715 38.674 28.2238C39.4393 26.3761 39.8332 24.3958 39.8332 22.3958C39.8332 18.3568 38.2288 14.4832 35.3727 11.6272C32.5167 8.77116 28.6431 7.16667 24.6041 7.16667ZM23.7083 12.5417H25.4999V22.2525L33.9208 27.1079L33.0249 28.6667L23.7083 23.2917V12.5417Z"/>
</mask>
<path d="M24.6041 5.375C29.1183 5.375 33.4476 7.16826 36.6396 10.3603C39.8317 13.5523 41.6249 17.8816 41.6249 22.3958C41.6249 26.91 39.8317 31.2394 36.6396 34.4314C33.4476 37.6234 29.1183 39.4167 24.6041 39.4167C20.0899 39.4167 15.7606 37.6234 12.5685 34.4314C9.37651 31.2394 7.58325 26.91 7.58325 22.3958C7.58325 17.8816 9.37651 13.5523 12.5685 10.3603C15.7606 7.16826 20.0899 5.375 24.6041 5.375ZM24.6041 7.16667C20.5651 7.16667 16.6915 8.77116 13.8354 11.6272C10.9794 14.4832 9.37492 18.3568 9.37492 22.3958C9.37492 26.4349 10.9794 30.3085 13.8354 33.1645C16.6915 36.0205 20.5651 37.625 24.6041 37.625C26.604 37.625 28.5843 37.2311 30.432 36.4657C32.2797 35.7004 33.9586 34.5786 35.3727 33.1645C36.7869 31.7503 37.9087 30.0715 38.674 28.2238C39.4393 26.3761 39.8332 24.3958 39.8332 22.3958C39.8332 18.3568 38.2288 14.4832 35.3727 11.6272C32.5167 8.77116 28.6431 7.16667 24.6041 7.16667ZM23.7083 12.5417H25.4999V22.2525L33.9208 27.1079L33.0249 28.6667L23.7083 23.2917V12.5417Z" fill="white"/>
<path d="M24.6041 5.375V3.375V5.375ZM41.6249 22.3958H43.6249H41.6249ZM24.6041 39.4167V41.4167V39.4167ZM7.58325 22.3958H5.58325H7.58325ZM24.6041 7.16667V5.16667V7.16667ZM9.37492 22.3958H7.37492H9.37492ZM24.6041 37.625V35.625V37.625ZM39.8332 22.3958H41.8332H39.8332ZM23.7083 12.5417V10.5417H21.7083V12.5417H23.7083ZM25.4999 12.5417H27.4999V10.5417H25.4999V12.5417ZM25.4999 22.2525H23.4999V23.408L24.5009 23.9851L25.4999 22.2525ZM33.9208 27.1079L35.6548 28.1045L36.6499 26.3729L34.9198 25.3753L33.9208 27.1079ZM33.0249 28.6667L32.0255 30.399L33.7607 31.4001L34.7589 29.6632L33.0249 28.6667ZM23.7083 23.2917H21.7083V24.4468L22.7088 25.024L23.7083 23.2917ZM24.6041 5.375V7.375C28.5879 7.375 32.4085 8.95755 35.2254 11.7745L36.6396 10.3603L38.0538 8.94607C34.4867 5.37897 29.6487 3.375 24.6041 3.375V5.375ZM36.6396 10.3603L35.2254 11.7745C38.0424 14.5915 39.6249 18.4121 39.6249 22.3958H41.6249H43.6249C43.6249 17.3512 41.6209 12.5132 38.0538 8.94607L36.6396 10.3603ZM41.6249 22.3958H39.6249C39.6249 26.3796 38.0424 30.2002 35.2254 33.0172L36.6396 34.4314L38.0538 35.8456C41.6209 32.2785 43.6249 27.4405 43.6249 22.3958H41.6249ZM36.6396 34.4314L35.2254 33.0172C32.4085 35.8341 28.5879 37.4167 24.6041 37.4167V39.4167V41.4167C29.6487 41.4167 34.4867 39.4127 38.0538 35.8456L36.6396 34.4314ZM24.6041 39.4167V37.4167C20.6203 37.4167 16.7997 35.8341 13.9828 33.0172L12.5685 34.4314L11.1543 35.8456C14.7214 39.4127 19.5594 41.4167 24.6041 41.4167V39.4167ZM12.5685 34.4314L13.9828 33.0172C11.1658 30.2002 9.58325 26.3796 9.58325 22.3958H7.58325H5.58325C5.58325 27.4405 7.58723 32.2785 11.1543 35.8456L12.5685 34.4314ZM7.58325 22.3958H9.58325C9.58325 18.4121 11.1658 14.5915 13.9828 11.7745L12.5685 10.3603L11.1543 8.94607C7.58723 12.5132 5.58325 17.3512 5.58325 22.3958H7.58325ZM12.5685 10.3603L13.9828 11.7745C16.7997 8.95755 20.6203 7.375 24.6041 7.375V5.375V3.375C19.5594 3.375 14.7214 5.37897 11.1543 8.94607L12.5685 10.3603ZM24.6041 7.16667V5.16667C20.0346 5.16667 15.6523 6.98188 12.4212 10.213L13.8354 11.6272L15.2497 13.0414C17.7306 10.5604 21.0955 9.16667 24.6041 9.16667V7.16667ZM13.8354 11.6272L12.4212 10.213C9.19013 13.4441 7.37492 17.8264 7.37492 22.3958H9.37492H11.3749C11.3749 18.8872 12.7687 15.5223 15.2497 13.0414L13.8354 11.6272ZM9.37492 22.3958H7.37492C7.37492 26.9653 9.19013 31.3476 12.4212 34.5787L13.8354 33.1645L15.2497 31.7503C12.7687 29.2693 11.3749 25.9044 11.3749 22.3958H9.37492ZM13.8354 33.1645L12.4212 34.5787C15.6523 37.8098 20.0346 39.625 24.6041 39.625V37.625V35.625C21.0955 35.625 17.7306 34.2312 15.2497 31.7503L13.8354 33.1645ZM24.6041 37.625V39.625C26.8666 39.625 29.1071 39.1794 31.1974 38.3135L30.432 36.4657L29.6667 34.618C28.0616 35.2828 26.3414 35.625 24.6041 35.625V37.625ZM30.432 36.4657L31.1974 38.3135C33.2877 37.4477 35.1871 36.1786 36.7869 34.5787L35.3727 33.1645L33.9585 31.7503C32.7301 32.9787 31.2717 33.9532 29.6667 34.618L30.432 36.4657ZM35.3727 33.1645L36.7869 34.5787C38.3868 32.9788 39.6559 31.0795 40.5218 28.9891L38.674 28.2238L36.8262 27.4584C36.1614 29.0635 35.187 30.5218 33.9585 31.7503L35.3727 33.1645ZM38.674 28.2238L40.5218 28.9891C41.3876 26.8988 41.8332 24.6584 41.8332 22.3958H39.8332H37.8332C37.8332 24.1331 37.4911 25.8534 36.8262 27.4584L38.674 28.2238ZM39.8332 22.3958H41.8332C41.8332 17.8264 40.018 13.4441 36.7869 10.213L35.3727 11.6272L33.9585 13.0414C36.4395 15.5223 37.8332 18.8872 37.8332 22.3958H39.8332ZM35.3727 11.6272L36.7869 10.213C33.5558 6.98188 29.1735 5.16667 24.6041 5.16667V7.16667V9.16667C28.1127 9.16667 31.4776 10.5605 33.9585 13.0414L35.3727 11.6272ZM23.7083 12.5417V14.5417H25.4999V12.5417V10.5417H23.7083V12.5417ZM25.4999 12.5417H23.4999V22.2525H25.4999H27.4999V12.5417H25.4999ZM25.4999 22.2525L24.5009 23.9851L32.9217 28.8405L33.9208 27.1079L34.9198 25.3753L26.4989 20.5199L25.4999 22.2525ZM33.9208 27.1079L32.1867 26.1113L31.2909 27.6701L33.0249 28.6667L34.7589 29.6632L35.6548 28.1045L33.9208 27.1079ZM33.0249 28.6667L34.0244 26.9343L24.7077 21.5593L23.7083 23.2917L22.7088 25.024L32.0255 30.399L33.0249 28.6667ZM23.7083 23.2917H25.7083V12.5417H23.7083H21.7083V23.2917H23.7083Z" fill="white" mask="url(#path-1-inside-1_28_1125)"/>
</g>
<defs>
<filter id="filter0_d_28_1125" x="0" y="0" width="51" height="51" filterUnits="userSpaceOnUse" color-interpolation-filters="sRGB">
<feFlood flood-opacity="0" result="BackgroundImageFix"/>
<feColorMatrix in="SourceAlpha" type="matrix" values="0 0 0 0 0 0 0 0 0 0 0 0 0 0 0 0 0 0 127 0" result="hardAlpha"/>
<feOffset dy="4"/>
<feGaussianBlur stdDeviation="2"/>
<feComposite in2="hardAlpha" operator="out"/>
<feColorMatrix type="matrix" values="0 0 0 0 0 0 0 0 0 0 0 0 0 0 0 0 0 0 0.8 0"/>
<feBlend mode="normal" in2="BackgroundImageFix" result="effect1_dropShadow_28_1125"/>
<feBlend mode="normal" in="SourceGraphic" in2="effect1_dropShadow_28_1125" result="shape"/>
</filter>
</defs>
</svg>
