<svg width="50" height="41" viewBox="0 0 50 41" fill="none" xmlns="http://www.w3.org/2000/svg">
<path fill-rule="evenodd" clip-rule="evenodd" d="M10.5 15C12.0913 15 13.6174 14.3679 14.7426 13.2426C15.8679 12.1174 16.5 10.5913 16.5 9C16.5 7.4087 15.8679 5.88258 14.7426 4.75736C13.6174 3.63214 12.0913 3 10.5 3C8.9087 3 7.38258 3.63214 6.25736 4.75736C5.13214 5.88258 4.5 7.4087 4.5 9C4.5 10.5913 5.13214 12.1174 6.25736 13.2426C7.38258 14.3679 8.9087 15 10.5 15ZM10.5 18C11.6819 18 12.8522 17.7672 13.9442 17.3149C15.0361 16.8626 16.0282 16.1997 16.864 15.364C17.6997 14.5282 18.3626 13.5361 18.8149 12.4442C19.2672 11.3522 19.5 10.1819 19.5 9C19.5 7.8181 19.2672 6.64778 18.8149 5.55585C18.3626 4.46392 17.6997 3.47177 16.864 2.63604C16.0282 1.80031 15.0361 1.13738 13.9442 0.685085C12.8522 0.232792 11.6819 -1.76116e-08 10.5 0C8.11305 3.55683e-08 5.82387 0.948212 4.13604 2.63604C2.44821 4.32387 1.5 6.61305 1.5 9C1.5 11.3869 2.44821 13.6761 4.13604 15.364C5.82387 17.0518 8.11305 18 10.5 18Z" fill="black"/>
<path fill-rule="evenodd" clip-rule="evenodd" d="M7.062 14.688C7.20169 14.8273 7.31252 14.9929 7.38814 15.1751C7.46376 15.3573 7.50268 15.5527 7.50268 15.75C7.50268 15.9473 7.46376 16.1427 7.38814 16.3249C7.31252 16.5071 7.20169 16.6727 7.062 16.812L6.048 17.823C4.09661 19.7749 3.00026 22.4219 3 25.182V30.75C3 31.1478 2.84196 31.5294 2.56066 31.8107C2.27936 32.092 1.89782 32.25 1.5 32.25C1.10218 32.25 0.720644 32.092 0.43934 31.8107C0.158035 31.5294 0 31.1478 0 30.75V25.182C0.000425278 21.6263 1.41296 18.2164 3.927 15.702L4.938 14.688C5.07734 14.5483 5.24286 14.4375 5.4251 14.3619C5.60733 14.2862 5.8027 14.2473 6 14.2473C6.1973 14.2473 6.39267 14.2862 6.5749 14.3619C6.75714 14.4375 6.92266 14.5483 7.062 14.688ZM42.438 13.788C42.2983 13.9273 42.1875 14.0929 42.1119 14.2751C42.0362 14.4573 41.9973 14.6527 41.9973 14.85C41.9973 15.0473 42.0362 15.2427 42.1119 15.4249C42.1875 15.6071 42.2983 15.7727 42.438 15.912L43.452 16.923C45.4034 18.8749 46.4997 21.5219 46.5 24.282V30.75C46.5 31.1478 46.658 31.5294 46.9393 31.8107C47.2206 32.092 47.6022 32.25 48 32.25C48.3978 32.25 48.7794 32.092 49.0607 31.8107C49.342 31.5294 49.5 31.1478 49.5 30.75V24.282C49.4996 20.7263 48.087 17.3164 45.573 14.802L44.562 13.788C44.4227 13.6483 44.2571 13.5375 44.0749 13.4619C43.8927 13.3862 43.6973 13.3473 43.5 13.3473C43.3027 13.3473 43.1073 13.3862 42.9251 13.4619C42.7429 13.5375 42.5773 13.6483 42.438 13.788Z" fill="black"/>
<path fill-rule="evenodd" clip-rule="evenodd" d="M37.5 15C35.9087 15 34.3826 14.3679 33.2574 13.2426C32.1321 12.1174 31.5 10.5913 31.5 9C31.5 7.4087 32.1321 5.88258 33.2574 4.75736C34.3826 3.63214 35.9087 3 37.5 3C39.0913 3 40.6174 3.63214 41.7426 4.75736C42.8679 5.88258 43.5 7.4087 43.5 9C43.5 10.5913 42.8679 12.1174 41.7426 13.2426C40.6174 14.3679 39.0913 15 37.5 15ZM37.5 18C36.3181 18 35.1478 17.7672 34.0558 17.3149C32.9639 16.8626 31.9718 16.1997 31.136 15.364C30.3003 14.5282 29.6374 13.5361 29.1851 12.4442C28.7328 11.3522 28.5 10.1819 28.5 9C28.5 7.8181 28.7328 6.64778 29.1851 5.55585C29.6374 4.46392 30.3003 3.47177 31.136 2.63604C31.9718 1.80031 32.9639 1.13738 34.0558 0.685085C35.1478 0.232792 36.3181 -1.76116e-08 37.5 0C39.8869 3.55683e-08 42.1761 0.948212 43.864 2.63604C45.5518 4.32387 46.5 6.61305 46.5 9C46.5 11.3869 45.5518 13.6761 43.864 15.364C42.1761 17.0518 39.8869 18 37.5 18ZM24 27.75C22.0109 27.75 20.1032 28.5402 18.6967 29.9467C17.2902 31.3532 16.5 33.2609 16.5 35.25V39.15C16.5 39.5478 16.342 39.9294 16.0607 40.2107C15.7794 40.492 15.3978 40.65 15 40.65C14.6022 40.65 14.2206 40.492 13.9393 40.2107C13.658 39.9294 13.5 39.5478 13.5 39.15V35.25C13.5 32.4652 14.6062 29.7945 16.5754 27.8254C18.5445 25.8562 21.2152 24.75 24 24.75C26.7848 24.75 29.4555 25.8562 31.4246 27.8254C33.3938 29.7945 34.5 32.4652 34.5 35.25V39.15C34.5 39.5478 34.342 39.9294 34.0607 40.2107C33.7794 40.492 33.3978 40.65 33 40.65C32.6022 40.65 32.2206 40.492 31.9393 40.2107C31.658 39.9294 31.5 39.5478 31.5 39.15V35.25C31.5 34.2651 31.306 33.2898 30.9291 32.3799C30.5522 31.4699 29.9997 30.6431 29.3033 29.9467C28.6069 29.2503 27.7801 28.6978 26.8701 28.3209C25.9602 27.944 24.9849 27.75 24 27.75Z" fill="black"/>
<path fill-rule="evenodd" clip-rule="evenodd" d="M24 23.25C25.5913 23.25 27.1174 22.6179 28.2426 21.4926C29.3679 20.3674 30 18.8413 30 17.25C30 15.6587 29.3679 14.1326 28.2426 13.0074C27.1174 11.8821 25.5913 11.25 24 11.25C22.4087 11.25 20.8826 11.8821 19.7574 13.0074C18.6321 14.1326 18 15.6587 18 17.25C18 18.8413 18.6321 20.3674 19.7574 21.4926C20.8826 22.6179 22.4087 23.25 24 23.25ZM24 26.25C26.3869 26.25 28.6761 25.3018 30.364 23.614C32.0518 21.9261 33 19.6369 33 17.25C33 14.8631 32.0518 12.5739 30.364 10.886C28.6761 9.19821 26.3869 8.25 24 8.25C21.6131 8.25 19.3239 9.19821 17.636 10.886C15.9482 12.5739 15 14.8631 15 17.25C15 19.6369 15.9482 21.9261 17.636 23.614C19.3239 25.3018 21.6131 26.25 24 26.25Z" fill="black"/>
</svg>
