<svg width="24" height="24" viewBox="0 0 24 24" fill="none" xmlns="http://www.w3.org/2000/svg">
<path d="M8.99991 17V21L11.9999 19L14.9999 21V17M13.9569 4.27498L13.6339 3.83098C13.4463 3.57354 13.2005 3.36409 12.9165 3.21968C12.6325 3.07527 12.3185 3 11.9999 3C11.6813 3 11.3673 3.07527 11.0833 3.21968C10.7994 3.36409 10.5536 3.57354 10.3659 3.83098L10.0429 4.27498L9.49991 4.18998C9.18525 4.14036 8.86332 4.16586 8.5604 4.2644C8.25747 4.36294 7.98215 4.53172 7.7569 4.75697C7.53165 4.98221 7.36287 5.25754 7.26433 5.56046C7.16579 5.86339 7.14029 6.18532 7.18991 6.49998L7.27491 7.04298L6.83091 7.36598C6.5731 7.55336 6.36329 7.79909 6.21862 8.08308C6.07395 8.36707 5.99854 8.68126 5.99854 8.99998C5.99854 9.3187 6.07395 9.63289 6.21862 9.91688C6.36329 10.2009 6.5731 10.4466 6.83091 10.634L7.27491 10.957L7.18991 11.499C7.14012 11.8137 7.16548 12.1358 7.26394 12.4388C7.3624 12.7419 7.53116 13.0173 7.75643 13.2427C7.9817 13.4681 8.25709 13.637 8.56011 13.7355C8.86312 13.8341 9.18516 13.8596 9.49991 13.81L10.0429 13.725L10.3659 14.169C10.5536 14.4264 10.7994 14.6359 11.0833 14.7803C11.3673 14.9247 11.6813 15 11.9999 15C12.3185 15 12.6325 14.9247 12.9165 14.7803C13.2005 14.6359 13.4463 14.4264 13.6339 14.169L13.9569 13.725L14.4989 13.81C14.8136 13.8598 15.1357 13.8344 15.4388 13.736C15.7418 13.6375 16.0173 13.4687 16.2426 13.2435C16.468 13.0182 16.6369 12.7428 16.7355 12.4398C16.8341 12.1368 16.8596 11.8147 16.8099 11.5L16.7249 10.957L17.1689 10.634C17.4264 10.4463 17.6358 10.2005 17.7802 9.91656C17.9246 9.63261 17.9999 9.31855 17.9999 8.99998C17.9999 8.68141 17.9246 8.36735 17.7802 8.0834C17.6358 7.79944 17.4264 7.55363 17.1689 7.36598L16.7249 7.04298L16.8099 6.50098C16.8597 6.18625 16.8343 5.8642 16.7359 5.56114C16.6374 5.25808 16.4687 4.98262 16.2434 4.75725C16.0181 4.53188 15.7427 4.363 15.4397 4.26441C15.1367 4.16582 14.8147 4.14032 14.4999 4.18998L13.9569 4.27498Z" stroke="black" stroke-width="2" stroke-linecap="round" stroke-linejoin="round"/>
</svg>
