<svg width="64" height="64" viewBox="0 0 64 64" fill="none" xmlns="http://www.w3.org/2000/svg">
<path d="M14.625 42.5833L27.3333 34.9583M37.5 29.875L50.2083 22.25M32.4167 14.625V27.3333M32.4167 37.5V50.2083M14.625 22.25L27.3333 29.875M37.5 34.9583L50.2083 42.5833M54.0208 24.7917V38.7708M36.2292 54.0208L50.2083 46.3958M13.3542 46.3958L28.6042 54.0208M10.8125 40.0417V24.7917M13.3542 18.4375L28.6042 10.8125M51.4792 18.4375L36.2292 10.8125" stroke="black" stroke-width="1.5" stroke-linejoin="round"/>
<path d="M32.4167 14.625C34.5223 14.625 36.2292 12.9181 36.2292 10.8125C36.2292 8.70691 34.5223 7 32.4167 7C30.3112 7 28.6042 8.70691 28.6042 10.8125C28.6042 12.9181 30.3112 14.625 32.4167 14.625Z" stroke="black" stroke-width="1.5" stroke-linejoin="round"/>
<path d="M32.4167 57.8333C34.5223 57.8333 36.2292 56.1264 36.2292 54.0208C36.2292 51.9152 34.5223 50.2083 32.4167 50.2083C30.3112 50.2083 28.6042 51.9152 28.6042 54.0208C28.6042 56.1264 30.3112 57.8333 32.4167 57.8333Z" stroke="black" stroke-width="1.5" stroke-linejoin="round"/>
<path d="M10.8125 24.7917C12.9181 24.7917 14.625 23.0848 14.625 20.9792C14.625 18.8736 12.9181 17.1667 10.8125 17.1667C8.70691 17.1667 7 18.8736 7 20.9792C7 23.0848 8.70691 24.7917 10.8125 24.7917Z" stroke="black" stroke-width="1.5" stroke-linejoin="round"/>
<path d="M54.0208 24.7917C56.1263 24.7917 57.8333 23.0848 57.8333 20.9792C57.8333 18.8736 56.1263 17.1667 54.0208 17.1667C51.9152 17.1667 50.2083 18.8736 50.2083 20.9792C50.2083 23.0848 51.9152 24.7917 54.0208 24.7917Z" stroke="black" stroke-width="1.5" stroke-linejoin="round"/>
<path d="M54.0208 47.6667C56.1263 47.6667 57.8333 45.9598 57.8333 43.8542C57.8333 41.7486 56.1263 40.0417 54.0208 40.0417C51.9152 40.0417 50.2083 41.7486 50.2083 43.8542C50.2083 45.9598 51.9152 47.6667 54.0208 47.6667Z" stroke="black" stroke-width="1.5" stroke-linejoin="round"/>
<path d="M10.8125 47.6667C12.9181 47.6667 14.625 45.9598 14.625 43.8542C14.625 41.7486 12.9181 40.0417 10.8125 40.0417C8.70691 40.0417 7 41.7486 7 43.8542C7 45.9598 8.70691 47.6667 10.8125 47.6667Z" stroke="black" stroke-width="1.5" stroke-linejoin="round"/>
<path d="M32.4166 26.6979L37.4999 29.5573V35.276L32.4166 38.1354L27.3333 35.276V29.5573L32.4166 26.6979Z" stroke="black" stroke-width="1.5" stroke-linejoin="round"/>
</svg>
