<svg width="51" height="51" viewBox="0 0 51 51" fill="none" xmlns="http://www.w3.org/2000/svg">
<g filter="url(#filter0_d_39_1590)">
<g clip-path="url(#clip0_39_1590)">
<path d="M4.00001 16.125C4.00001 7.22938 11.2294 0 20.125 0C27.1663 0 33.1325 4.515 35.3363 10.7769C35.6337 10.7518 35.9356 10.7393 36.2419 10.7393C42.1813 10.7393 46.9919 15.5499 46.9919 21.4893C46.9919 27.4286 42.1813 32.2393 36.2419 32.2393H34.8982C34.5418 32.2393 34.2 32.0977 33.948 31.8457C33.696 31.5937 33.5544 31.2519 33.5544 30.8955C33.5544 30.5391 33.696 30.1973 33.948 29.9453C34.2 29.6933 34.5418 29.5518 34.8982 29.5518H36.2419C40.7032 29.5518 44.3044 25.9505 44.3044 21.4893C44.3067 20.295 44.0433 19.1151 43.5332 18.0353C43.0232 16.9554 42.2793 16.0025 41.3554 15.2456C40.4316 14.4887 39.351 13.9469 38.1919 13.6592C37.0327 13.3716 35.8241 13.3454 34.6536 13.5826C34.3192 13.6497 33.9717 13.587 33.6818 13.4073C33.3918 13.2277 33.1811 12.9445 33.0922 12.6151C32.5098 10.4581 31.399 8.48024 29.8601 6.8604C28.3213 5.24055 26.403 4.02981 24.2786 3.33763C22.1543 2.64546 19.8909 2.49369 17.6932 2.89605C15.4954 3.29841 13.4326 4.2422 11.6913 5.6421C9.94997 7.04199 8.58502 8.85384 7.71987 10.9138C6.85472 12.9738 6.51665 15.2169 6.73624 17.4403C6.95583 19.6638 7.72614 21.7974 8.97753 23.6484C10.2289 25.4993 11.9219 27.0091 13.9034 28.0414C14.3953 28.2967 14.7285 28.7939 14.7285 29.3502C14.7285 30.315 13.7744 30.9842 12.9118 30.5542C10.2303 29.2155 7.9749 27.1559 6.39884 24.6067C4.82277 22.0575 3.98836 19.1194 3.98926 16.1223L4.00001 16.125Z" fill="black"/>
<path d="M25.5 41.6562C25.5 42.0126 25.3584 42.3544 25.1064 42.6064C24.8544 42.8584 24.5126 43 24.1562 43C23.7998 43 23.4581 42.8584 23.206 42.6064C22.954 42.3544 22.8125 42.0126 22.8125 41.6562V23.4081L19.7218 26.4987C19.4684 26.7435 19.129 26.879 18.7767 26.8759C18.4243 26.8728 18.0873 26.7315 17.8382 26.4824C17.589 26.2332 17.4477 25.8962 17.4446 25.5439C17.4416 25.1915 17.577 24.8521 17.8218 24.5987L23.1968 19.2237C23.4462 18.9735 23.7841 18.8315 24.1374 18.8286H24.1535C24.5074 18.8301 24.8463 18.9711 25.0968 19.221L30.4719 24.596C30.7166 24.8494 30.8521 25.1889 30.849 25.5412C30.8459 25.8935 30.7046 26.2305 30.4555 26.4797C30.2063 26.7288 29.8693 26.8701 29.517 26.8732C29.1647 26.8763 28.8252 26.7408 28.5718 26.4961L25.4812 23.4054V41.6536L25.5 41.6562Z" fill="black"/>
</g>
</g>
<defs>
<filter id="filter0_d_39_1590" x="0" y="0" width="51" height="51" filterUnits="userSpaceOnUse" color-interpolation-filters="sRGB">
<feFlood flood-opacity="0" result="BackgroundImageFix"/>
<feColorMatrix in="SourceAlpha" type="matrix" values="0 0 0 0 0 0 0 0 0 0 0 0 0 0 0 0 0 0 127 0" result="hardAlpha"/>
<feOffset dy="4"/>
<feGaussianBlur stdDeviation="2"/>
<feComposite in2="hardAlpha" operator="out"/>
<feColorMatrix type="matrix" values="0 0 0 0 0 0 0 0 0 0 0 0 0 0 0 0 0 0 0.5 0"/>
<feBlend mode="normal" in2="BackgroundImageFix" result="effect1_dropShadow_39_1590"/>
<feBlend mode="normal" in="SourceGraphic" in2="effect1_dropShadow_39_1590" result="shape"/>
</filter>
<clipPath id="clip0_39_1590">
<rect width="43" height="43" fill="white" transform="translate(4)"/>
</clipPath>
</defs>
</svg>
