<svg width="50" height="50" viewBox="0 0 50 50" fill="none" xmlns="http://www.w3.org/2000/svg">
<g clip-path="url(#clip0_39_1627)">
<g filter="url(#filter0_d_39_1627)">
<path d="M25 15.277C25 11.4583 21.875 8.33325 18.0563 8.33325H4.16669V33.3333H18.1417C25 33.3333 25 40.2791 25 40.2791M25 40.2791V15.277C25 11.4562 28.125 8.33325 31.9438 8.33325H45.8334V33.3333H31.9438C25 33.3333 25 40.2791 25 40.2791ZM28.9063 42.6208C29.341 41.7205 30.0181 40.9593 30.8616 40.4227C31.7052 39.8861 32.6816 39.5954 33.6813 39.5833H43.75M21.0938 42.6208C20.667 41.7144 19.9917 40.9478 19.1464 40.41C18.3012 39.8723 17.3206 39.5856 16.3188 39.5833H6.25002" stroke="black" stroke-width="3" stroke-miterlimit="10" stroke-linecap="round" stroke-linejoin="round" shape-rendering="crispEdges"/>
</g>
</g>
<defs>
<filter id="filter0_d_39_1627" x="-1.33331" y="6.83325" width="52.6667" height="45.2878" filterUnits="userSpaceOnUse" color-interpolation-filters="sRGB">
<feFlood flood-opacity="0" result="BackgroundImageFix"/>
<feColorMatrix in="SourceAlpha" type="matrix" values="0 0 0 0 0 0 0 0 0 0 0 0 0 0 0 0 0 0 127 0" result="hardAlpha"/>
<feOffset dy="4"/>
<feGaussianBlur stdDeviation="2"/>
<feComposite in2="hardAlpha" operator="out"/>
<feColorMatrix type="matrix" values="0 0 0 0 0 0 0 0 0 0 0 0 0 0 0 0 0 0 0.5 0"/>
<feBlend mode="normal" in2="BackgroundImageFix" result="effect1_dropShadow_39_1627"/>
<feBlend mode="normal" in="SourceGraphic" in2="effect1_dropShadow_39_1627" result="shape"/>
</filter>
<clipPath id="clip0_39_1627">
<rect width="50" height="50" fill="white"/>
</clipPath>
</defs>
</svg>
