<svg width="56" height="58" viewBox="0 0 56 58" fill="none" xmlns="http://www.w3.org/2000/svg">
<g filter="url(#filter0_d_39_1557)">
<path d="M40.8333 10.8333H43V13C43 13.5746 43.2283 14.1257 43.6346 14.5321C44.0409 14.9384 44.592 15.1667 45.1667 15.1667C45.7413 15.1667 46.2924 14.9384 46.6987 14.5321C47.1051 14.1257 47.3333 13.5746 47.3333 13V10.8333H49.5C50.0746 10.8333 50.6258 10.6051 51.0321 10.1987C51.4384 9.7924 51.6667 9.2413 51.6667 8.66667C51.6667 8.09203 51.4384 7.54093 51.0321 7.1346C50.6258 6.72827 50.0746 6.5 49.5 6.5H47.3333V4.33333C47.3333 3.7587 47.1051 3.2076 46.6987 2.80127C46.2924 2.39494 45.7413 2.16666 45.1667 2.16666C44.592 2.16666 44.0409 2.39494 43.6346 2.80127C43.2283 3.2076 43 3.7587 43 4.33333V6.5H40.8333C40.2587 6.5 39.7076 6.72827 39.3013 7.1346C38.895 7.54093 38.6667 8.09203 38.6667 8.66667C38.6667 9.2413 38.895 9.7924 39.3013 10.1987C39.7076 10.6051 40.2587 10.8333 40.8333 10.8333ZM25.6667 19.5V32.5C25.6667 34.2239 26.3515 35.8772 27.5705 37.0962C28.7895 38.3152 30.4428 39 32.1667 39H34.3333C36.0573 39 37.7106 38.3152 38.9295 37.0962C40.1485 35.8772 40.8333 34.2239 40.8333 32.5V19.5C40.8333 17.7761 40.1485 16.1228 38.9295 14.9038C37.7106 13.6848 36.0573 13 34.3333 13H32.1667C30.4428 13 28.7895 13.6848 27.5705 14.9038C26.3515 16.1228 25.6667 17.7761 25.6667 19.5ZM36.5 19.5V32.5C36.5 33.0746 36.2717 33.6257 35.8654 34.0321C35.4591 34.4384 34.908 34.6667 34.3333 34.6667H32.1667C31.592 34.6667 31.0409 34.4384 30.6346 34.0321C30.2283 33.6257 30 33.0746 30 32.5V19.5C30 18.9254 30.2283 18.3743 30.6346 17.9679C31.0409 17.5616 31.592 17.3333 32.1667 17.3333H34.3333C34.908 17.3333 35.4591 17.5616 35.8654 17.9679C36.2717 18.3743 36.5 18.9254 36.5 19.5ZM48.6333 19.5C48.3545 19.5569 48.0895 19.6681 47.8537 19.8274C47.6178 19.9866 47.4156 20.1908 47.2587 20.4282C47.1018 20.6656 46.9931 20.9317 46.939 21.2111C46.8849 21.4905 46.8864 21.7778 46.9433 22.0567C47.7893 26.1651 47.2879 30.4368 45.5136 34.2377C43.7393 38.0386 40.7866 41.1661 37.094 43.1558C33.4013 45.1456 29.1654 45.8916 25.0152 45.283C20.8649 44.6745 17.0215 42.744 14.0554 39.7779C11.0894 36.8119 9.15881 32.9684 8.5503 28.8182C7.94179 24.6679 8.68778 20.432 10.6775 16.7394C12.6673 13.0467 15.7947 10.0941 19.5956 8.31975C23.3965 6.54544 27.6682 6.04405 31.7767 6.89C32.3513 7.00493 32.9481 6.88687 33.4357 6.56181C33.9233 6.23675 34.2618 5.7313 34.3767 5.15667C34.4916 4.58203 34.3736 3.98527 34.0485 3.49768C33.7234 3.01008 33.218 2.67159 32.6433 2.55666C31.0577 2.26124 29.4458 2.13055 27.8333 2.16666C23.1196 2.16666 18.5116 3.56447 14.5923 6.18331C10.6729 8.80215 7.6181 12.5244 5.81422 16.8794C4.01033 21.2343 3.53835 26.0264 4.45796 30.6497C5.37758 35.2729 7.64748 39.5196 10.9806 42.8527C14.3138 46.1859 18.5605 48.4558 23.1837 49.3754C27.8069 50.295 32.599 49.823 36.954 48.0191C41.3089 46.2152 45.0312 43.1605 47.65 39.2411C50.2689 35.3217 51.6667 30.7138 51.6667 26C51.6713 24.399 51.5116 22.8017 51.19 21.2333C51.1381 20.9506 51.0305 20.681 50.8733 20.4402C50.7162 20.1995 50.5127 19.9924 50.2748 19.8311C50.0368 19.6698 49.7692 19.5574 49.4873 19.5006C49.2055 19.4437 48.9152 19.4435 48.6333 19.5ZM17 15.1667V36.8333C17 37.408 17.2283 37.9591 17.6346 38.3654C18.0409 38.7717 18.592 39 19.1667 39C19.7413 39 20.2924 38.7717 20.6987 38.3654C21.1051 37.9591 21.3333 37.408 21.3333 36.8333V15.1667C21.3333 14.592 21.1051 14.0409 20.6987 13.6346C20.2924 13.2283 19.7413 13 19.1667 13C18.592 13 18.0409 13.2283 17.6346 13.6346C17.2283 14.0409 17 14.592 17 15.1667Z" fill="black"/>
</g>
<defs>
<filter id="filter0_d_39_1557" x="-2.16663" y="0" width="60" height="60" filterUnits="userSpaceOnUse" color-interpolation-filters="sRGB">
<feFlood flood-opacity="0" result="BackgroundImageFix"/>
<feColorMatrix in="SourceAlpha" type="matrix" values="0 0 0 0 0 0 0 0 0 0 0 0 0 0 0 0 0 0 127 0" result="hardAlpha"/>
<feOffset dy="4"/>
<feGaussianBlur stdDeviation="2"/>
<feComposite in2="hardAlpha" operator="out"/>
<feColorMatrix type="matrix" values="0 0 0 0 0 0 0 0 0 0 0 0 0 0 0 0 0 0 0.25 0"/>
<feBlend mode="normal" in2="BackgroundImageFix" result="effect1_dropShadow_39_1557"/>
<feBlend mode="normal" in="SourceGraphic" in2="effect1_dropShadow_39_1557" result="shape"/>
</filter>
</defs>
</svg>
