<svg width="50" height="49" viewBox="0 0 50 49" fill="none" xmlns="http://www.w3.org/2000/svg">
<path d="M12.6576 0C12.4941 0.000828125 12.3319 0.00538281 12.169 0.0129395L29.9478 26.7296H45.087C46.676 24.9796 47.9725 23.0793 48.7815 20.8748H38.7533C37.9959 22.7556 36.1513 24.0934 34.0076 24.0934C31.1948 24.0934 28.8965 21.7919 28.8965 18.979C28.8965 17.7952 29.3054 16.7039 29.9866 15.8347L24.8983 7.79618L24.8885 7.81232C24.7672 7.60306 24.6421 7.396 24.5134 7.19123C21.3969 2.21358 16.9278 -0.0231874 12.6577 0.000207115L12.6576 0ZM36.3271 0.274938C32.6146 0.308891 28.8069 2.14402 25.8948 6.24313H47.0249C44.491 2.43986 40.469 0.23674 36.327 0.275041L36.3271 0.274938ZM10.0376 0.300816C8.84764 0.572441 7.70017 1.02615 6.63437 1.64652C7.73909 2.58644 8.44279 3.98597 8.44279 5.54119C8.44279 6.85791 7.93836 8.0618 7.11323 8.97015L11.5838 15.9378H20.4441L10.0376 0.300816ZM3.32829 2.36129C1.56086 2.36129 0.148289 3.77377 0.148289 5.5413C0.148289 7.30862 1.56086 8.71778 3.32829 8.71778C5.09571 8.71778 6.50829 7.30872 6.50829 5.5413C6.50829 3.77387 5.09571 2.36129 3.32829 2.36129ZM27.4313 8.17763L31.4653 14.5469C32.2379 14.0995 33.1149 13.8641 34.0076 13.8645C36.8077 13.8645 39.1009 16.1449 39.122 18.9398H49.3442C49.6107 17.7176 49.7331 16.4047 49.6905 14.9804C49.6144 12.4385 49.0448 10.1503 48.1149 8.17753H27.4315L27.4313 8.17763ZM0.572082 9.8403C0.155949 11.3951 -0.0474595 13.1135 0.00937058 14.9805C0.0192046 15.3058 0.0397007 15.6238 0.0675464 15.938H9.28696L5.5635 10.1349C4.86774 10.4759 4.10311 10.6529 3.32829 10.6525C2.31487 10.6525 1.36915 10.3536 0.572185 9.8404L0.572082 9.8403ZM34.0076 15.799C32.2403 15.799 30.831 17.2113 30.831 18.9788C30.831 20.7462 32.2403 22.1588 34.0077 22.1588C35.7752 22.1588 37.1877 20.7462 37.1877 18.9788C37.1877 17.2113 35.7752 15.7988 34.0077 15.7988L34.0076 15.799ZM0.361945 17.8724C0.744228 19.6257 1.41646 21.2059 2.30286 22.6698H18.5515L18.8362 23.1194L26.875 35.813L27.8162 37.2979H20.1724C20.0292 38.0069 19.7369 38.6773 19.315 39.2647C21.6094 41.8073 23.5939 44.7068 24.8886 48.2447C28.5278 38.8306 37.1171 34.2833 43.1658 28.6641H28.9096L28.6218 28.2304L21.7283 17.8726H0.361945V17.8724ZM3.63884 24.6043C5.83264 27.423 8.7935 29.8592 11.849 32.4004C12.7426 31.6391 13.8994 31.1776 15.1582 31.1776C17.6545 31.1776 19.7489 32.9895 20.1885 35.3635H24.3001L17.4872 24.6043H3.63884ZM15.1581 33.1121C13.3907 33.1121 11.9783 34.5244 11.9783 36.2919C11.9783 38.0593 13.3907 39.4719 15.1583 39.4719C16.9256 39.4719 18.3348 38.0593 18.3348 36.2919C18.3348 34.5244 16.9255 33.1119 15.158 33.1119L15.1581 33.1121Z" fill="black"/>
</svg>
